<svg width="191" height="70" viewBox="0 0 191 70" fill="none" xmlns="http://www.w3.org/2000/svg">
<g clip-path="url(#clip0_3_180)">
<path d="M67.304 69.8818H66.298V62.1318H63.562V61.2388H70.041V62.1318H67.304V69.8818Z" fill="black"/>
<path d="M75.628 69.8821V65.6911C75.6608 65.2656 75.5322 64.8433 75.268 64.5081C75.1174 64.3677 74.9391 64.2603 74.7444 64.1932C74.5497 64.126 74.3432 64.1004 74.138 64.1181C73.8637 64.0939 73.5874 64.1311 73.3293 64.2271C73.0712 64.3232 72.8378 64.4755 72.646 64.6731C72.2851 65.2083 72.1188 65.8511 72.175 66.4941V69.8821H71.198V60.6821H72.179V63.4651C72.1822 63.7439 72.1665 64.0225 72.132 64.2991H72.191C72.3911 63.9812 72.6771 63.7263 73.016 63.5641C73.396 63.3789 73.8144 63.2864 74.237 63.2941C74.8816 63.2447 75.5203 63.4468 76.019 63.8581C76.2363 64.1003 76.4017 64.3844 76.5049 64.693C76.6081 65.0015 76.6469 65.328 76.619 65.6521V69.8801H75.628" fill="black"/>
<path d="M81.098 64.106C80.8659 64.0955 80.6343 64.1357 80.4193 64.2238C80.2043 64.3118 80.011 64.4457 79.853 64.616C79.5204 65.0114 79.3281 65.5058 79.306 66.022H82.698C82.7316 65.514 82.585 65.0105 82.284 64.6C82.1377 64.433 81.9551 64.3016 81.7502 64.216C81.5454 64.1304 81.3236 64.0928 81.102 64.106M81.362 70C80.9437 70.0217 80.5255 69.955 80.1347 69.8043C79.7439 69.6535 79.3893 69.422 79.094 69.125C78.5088 68.4558 78.2103 67.5834 78.263 66.696C78.215 65.8005 78.4889 64.9173 79.035 64.206C79.2865 63.904 79.604 63.6638 79.9631 63.5041C80.3222 63.3444 80.7133 63.2694 81.106 63.285C81.4665 63.2678 81.8263 63.3307 82.1596 63.469C82.4929 63.6073 82.7915 63.8177 83.034 64.085C83.5269 64.6755 83.7803 65.4296 83.744 66.198V66.819H79.28C79.2535 67.4474 79.4584 68.0636 79.856 68.551C80.0559 68.7533 80.2967 68.9107 80.5622 69.0126C80.8278 69.1146 81.112 69.1586 81.396 69.142C82.1082 69.1388 82.8123 68.9901 83.465 68.705V69.579C83.1485 69.7189 82.8189 69.8268 82.481 69.901C82.1125 69.9731 81.7374 70.0063 81.362 70Z" fill="black"/>
<path d="M92.755 69.8818V65.6908C92.7875 65.2651 92.6586 64.8428 92.394 64.5078C92.2436 64.3673 92.0654 64.26 91.8709 64.1928C91.6765 64.1256 91.47 64.1001 91.265 64.1178C90.9917 64.0938 90.7164 64.1305 90.459 64.2254C90.2015 64.3204 89.9683 64.4711 89.776 64.6668C89.4105 65.1979 89.2415 65.8397 89.298 66.4818V69.8818H88.317V63.3998H89.117L89.276 64.2868H89.323C89.528 63.9637 89.8217 63.7065 90.169 63.5458C90.5475 63.3664 90.9621 63.276 91.381 63.2818C92.0193 63.2339 92.6512 63.4362 93.143 63.8458C93.3594 64.0907 93.5236 64.3772 93.6254 64.6877C93.7272 64.9983 93.7645 65.3263 93.735 65.6518V69.8798H92.752" fill="black"/>
<path d="M98.223 64.1059C97.991 64.0956 97.7596 64.1358 97.5448 64.2239C97.33 64.312 97.1369 64.4457 96.979 64.6159C96.6464 65.0113 96.4541 65.5057 96.432 66.0219H99.82C99.8541 65.5139 99.7075 65.0102 99.406 64.5999C99.2595 64.4329 99.0767 64.3015 98.8717 64.2159C98.6667 64.1303 98.4448 64.0927 98.223 64.1059ZM98.488 69.9999C98.0699 70.0214 97.6519 69.9547 97.2613 69.8039C96.8707 69.6531 96.5162 69.4218 96.221 69.1249C95.6358 68.4558 95.3373 67.5833 95.39 66.6959C95.3418 65.8005 95.6152 64.9174 96.161 64.2059C96.4128 63.9038 96.7307 63.6636 97.0902 63.5039C97.4496 63.3442 97.841 63.2693 98.234 63.2849C98.5943 63.268 98.9539 63.3309 99.287 63.4692C99.6202 63.6075 99.9186 63.8178 100.161 64.0849C100.654 64.6755 100.907 65.4295 100.871 66.1979V66.8189H96.407C96.3805 67.4473 96.5854 68.0636 96.983 68.5509C97.1829 68.7533 97.4237 68.9107 97.6892 69.0126C97.9548 69.1145 98.239 69.1586 98.523 69.1419C99.2352 69.1388 99.9393 68.9901 100.592 68.7049V69.5789C100.276 69.7188 99.9459 69.8267 99.608 69.9009C99.2391 69.973 98.8638 70.0062 98.488 69.9999Z" fill="black"/>
<path d="M104.106 66.5659L101.854 63.3999H102.971L104.68 65.8829L106.38 63.3999H107.486L105.234 66.5629L107.606 69.8789H106.498L104.684 67.2539L102.851 69.8789H101.74L104.11 66.5629" fill="black"/>
<path d="M110.982 69.1908C111.149 69.1911 111.317 69.1781 111.482 69.1518C111.612 69.1333 111.74 69.1069 111.867 69.0728V69.8238C111.717 69.887 111.559 69.9298 111.397 69.9508C111.212 69.982 111.025 69.9987 110.838 70.0008C109.584 70.0008 108.957 69.3408 108.957 68.0208V64.1668H108.029V63.6938L108.957 63.2858L109.371 61.9028H109.939V63.4028H111.818V64.1658H109.939V67.9798C109.917 68.3038 110.015 68.6244 110.216 68.8798C110.313 68.9849 110.431 69.0675 110.563 69.1216C110.695 69.1757 110.837 69.2 110.98 69.1928" fill="black"/>
<path d="M117.289 60.6841H116.307V69.8821H117.289V60.6841Z" fill="black"/>
<path d="M121.841 64.1059C121.609 64.0954 121.377 64.1356 121.162 64.2237C120.947 64.3118 120.754 64.4456 120.596 64.6159C120.264 65.0114 120.072 65.5058 120.05 66.0219H123.437C123.471 65.514 123.325 65.0103 123.024 64.5999C122.877 64.4329 122.695 64.3015 122.49 64.2159C122.285 64.1303 122.063 64.0927 121.841 64.1059ZM122.107 69.9999C121.689 70.0214 121.271 69.9547 120.88 69.8039C120.49 69.6531 120.135 69.4218 119.84 69.1249C119.255 68.4557 118.957 67.5832 119.01 66.6959C118.962 65.8005 119.235 64.9174 119.781 64.2059C120.033 63.9038 120.351 63.6636 120.71 63.5039C121.07 63.3442 121.461 63.2693 121.854 63.2849C122.214 63.268 122.574 63.331 122.907 63.4693C123.24 63.6076 123.538 63.8178 123.78 64.0849C124.273 64.6752 124.527 65.4294 124.49 66.1979V66.8189H120.026C120 67.4473 120.206 68.0634 120.603 68.5509C120.803 68.7533 121.044 68.9107 121.309 69.0126C121.575 69.1145 121.859 69.1586 122.143 69.1419C122.855 69.1386 123.559 68.9899 124.212 68.7049V69.5789C123.895 69.7185 123.566 69.8264 123.228 69.9009C122.859 69.9729 122.483 70.006 122.107 69.9999Z" fill="black"/>
<path d="M127.582 69.8819L125.122 63.4029H126.174L127.574 67.2459C127.789 67.8193 127.975 68.4034 128.13 68.9959H128.178C128.292 68.5557 128.429 68.1218 128.588 67.6959C128.818 67.0399 129.336 65.6082 130.141 63.4009H131.194L128.734 69.8799H127.586" fill="black"/>
<path d="M134.698 64.1059C134.466 64.0954 134.234 64.1356 134.019 64.2237C133.804 64.3118 133.611 64.4456 133.453 64.6159C133.121 65.0114 132.929 65.5058 132.907 66.0219H136.298C136.333 65.5139 136.186 65.01 135.884 64.5999C135.738 64.4328 135.555 64.3014 135.35 64.2157C135.145 64.1301 134.924 64.0925 134.702 64.1059M134.965 69.9999C134.547 70.0216 134.129 69.9548 133.738 69.8041C133.348 69.6533 132.993 69.4219 132.698 69.1249C132.113 68.4557 131.815 67.5832 131.868 66.6959C131.82 65.8005 132.093 64.9174 132.639 64.2059C132.891 63.9038 133.209 63.6636 133.568 63.5039C133.928 63.3442 134.319 63.2693 134.712 63.2849C135.072 63.268 135.432 63.331 135.765 63.4693C136.098 63.6076 136.396 63.8178 136.638 64.0849C137.131 64.6752 137.385 65.4294 137.348 66.1979V66.8189H132.885C132.858 67.4474 133.063 68.0638 133.461 68.5509C133.661 68.7536 133.901 68.9113 134.167 69.0132C134.433 69.1152 134.717 69.159 135.001 69.1419C135.713 69.1386 136.417 68.9899 137.07 68.7049V69.5789C136.753 69.7185 136.424 69.8264 136.086 69.9009C135.717 69.9729 135.341 70.0061 134.965 69.9999Z" fill="black"/>
<path d="M140.003 60.6841H139.022V69.8821H140.003V60.6841Z" fill="black"/>
<path d="M148.098 64.119C147.828 64.0936 147.557 64.1324 147.305 64.2324C147.054 64.3324 146.829 64.4906 146.651 64.694C146.357 65.3024 146.205 65.9697 146.207 66.6454C146.209 67.3212 146.365 67.9875 146.663 68.594C146.842 68.8008 147.068 68.9621 147.322 69.0645C147.576 69.1669 147.85 69.2075 148.123 69.183C148.386 69.1997 148.648 69.1476 148.885 69.0318C149.121 68.9161 149.323 68.7407 149.471 68.523C149.801 67.9488 149.955 67.2901 149.914 66.629C149.961 65.9696 149.807 65.3115 149.471 64.742C149.312 64.5323 149.103 64.3657 148.863 64.2575C148.624 64.1494 148.36 64.1032 148.098 64.123M148.241 63.3C148.617 63.2804 148.992 63.349 149.336 63.5005C149.68 63.6519 149.985 63.8819 150.224 64.172C150.687 64.9146 150.931 65.7722 150.93 66.647C150.929 67.5219 150.682 68.3788 150.217 69.12C149.98 69.412 149.677 69.6442 149.334 69.7977C148.99 69.9513 148.616 70.0219 148.24 70.004C147.842 70.0095 147.448 69.9301 147.084 69.771C146.733 69.6133 146.43 69.3652 146.206 69.052H146.135L145.928 69.886H145.228V60.686H146.209V62.919C146.209 63.419 146.192 63.869 146.161 64.268H146.209C146.439 63.948 146.746 63.6914 147.102 63.5222C147.458 63.3529 147.851 63.2765 148.244 63.3H148.241Z" fill="black"/>
<path d="M155.119 64.1059C154.887 64.0954 154.655 64.1356 154.44 64.2237C154.225 64.3118 154.032 64.4456 153.874 64.6159C153.542 65.0116 153.35 65.5058 153.327 66.0219H156.715C156.748 65.5135 156.601 65.0098 156.298 64.5999C156.152 64.4329 155.969 64.3016 155.764 64.2159C155.559 64.1303 155.338 64.0927 155.116 64.1059M155.385 69.9999C154.967 70.0218 154.549 69.9551 154.158 69.8043C153.767 69.6536 153.413 69.422 153.118 69.1249C152.533 68.4558 152.234 67.5833 152.287 66.6959C152.239 65.8005 152.512 64.9174 153.058 64.2059C153.31 63.9037 153.627 63.6634 153.987 63.5037C154.346 63.344 154.737 63.2691 155.13 63.2849C155.49 63.268 155.85 63.3309 156.183 63.4692C156.516 63.6075 156.815 63.8178 157.057 64.0849C157.55 64.6756 157.803 65.4296 157.766 66.1979V66.8189H153.303C153.277 67.4473 153.481 68.0636 153.879 68.5509C154.079 68.7534 154.32 68.9109 154.586 69.0128C154.851 69.1147 155.136 69.1587 155.42 69.1419C156.132 69.1387 156.836 68.99 157.488 68.7049V69.5789C157.172 69.7188 156.842 69.8267 156.504 69.9009C156.135 69.9729 155.76 70.0061 155.385 69.9999Z" fill="black"/>
<path d="M162.029 69.9998C161.625 70.0238 161.22 69.9586 160.844 69.809C160.467 69.6593 160.128 69.4288 159.851 69.1338C159.297 68.4415 159.022 67.5674 159.079 66.6828C159.021 65.7774 159.301 64.8826 159.863 64.1708C160.147 63.8678 160.494 63.6312 160.879 63.4781C161.265 63.3249 161.68 63.2589 162.094 63.2848C162.408 63.2844 162.721 63.3179 163.028 63.3848C163.281 63.4323 163.528 63.5116 163.761 63.6208L163.461 64.4538C163.23 64.3637 162.993 64.2918 162.751 64.2388C162.528 64.1852 162.3 64.1564 162.071 64.1528C160.754 64.1528 160.095 64.9924 160.096 66.6718C160.054 67.3188 160.223 67.9619 160.578 68.5048C160.746 68.7191 160.964 68.8892 161.213 69.0003C161.461 69.1115 161.733 69.1604 162.005 69.1428C162.576 69.1365 163.141 69.0179 163.667 68.7938V69.6628C163.156 69.9048 162.594 70.0203 162.029 69.9998Z" fill="black"/>
<path d="M166.175 66.5661C166.415 66.2373 166.673 65.9219 166.948 65.6211L169.041 63.4031H170.206L167.581 66.1641L170.389 69.8831H169.198L166.911 66.8201L166.173 67.4601V69.8831H165.202V60.6831H166.173V65.5601C166.173 65.7771 166.155 66.1121 166.125 66.5601H166.172" fill="black"/>
<path d="M172.216 66.6361C172.173 67.3046 172.348 67.9691 172.716 68.5291C172.901 68.733 173.127 68.896 173.378 69.0076C173.63 69.1191 173.903 69.1767 174.178 69.1767C174.453 69.1767 174.726 69.1191 174.978 69.0076C175.229 68.896 175.455 68.733 175.64 68.5291C176.011 67.9679 176.187 67.3002 176.14 66.6291C176.185 65.9654 176.009 65.3054 175.64 64.7521C175.463 64.5354 175.237 64.3641 174.98 64.2526C174.724 64.1411 174.444 64.0926 174.165 64.1111C173.89 64.0927 173.614 64.1404 173.361 64.2504C173.108 64.3603 172.884 64.5293 172.71 64.7431C172.345 65.3012 172.172 65.9637 172.22 66.6291M177.156 66.6291C177.209 67.525 176.924 68.4082 176.356 69.1031C176.076 69.4052 175.733 69.6421 175.352 69.7971C174.97 69.9521 174.559 70.0214 174.148 70.0001C173.606 70.0101 173.072 69.8689 172.606 69.5921C172.15 69.3134 171.788 68.9059 171.564 68.4211C171.309 67.8612 171.185 67.251 171.199 66.6361C171.145 65.743 171.427 64.8619 171.991 64.1671C172.271 63.868 172.613 63.6338 172.993 63.4813C173.373 63.3287 173.782 63.2614 174.191 63.2841C174.595 63.2655 174.998 63.3366 175.372 63.4922C175.745 63.6478 176.08 63.8841 176.351 64.1841C176.916 64.8721 177.202 65.7472 177.152 66.6361L177.156 66.6291Z" fill="black"/>
<path d="M183.306 69.8818V65.6908C183.339 65.2653 183.21 64.843 182.946 64.5078C182.796 64.3673 182.617 64.26 182.423 64.1928C182.228 64.1256 182.022 64.1001 181.817 64.1178C181.544 64.0939 181.268 64.1307 181.011 64.2256C180.754 64.3206 180.52 64.4712 180.328 64.6668C179.964 65.1984 179.796 65.8401 179.854 66.4818V69.8818H178.873V63.3998H179.673L179.832 64.2868H179.879C180.084 63.964 180.378 63.7068 180.725 63.5458C181.103 63.3663 181.518 63.2759 181.937 63.2818C182.575 63.2339 183.207 63.4362 183.699 63.8458C183.915 64.0907 184.08 64.3772 184.181 64.6877C184.283 64.9983 184.32 65.3263 184.291 65.6518V69.8798H183.307" fill="black"/>
<path d="M190.484 68.115C190.497 68.386 190.442 68.6561 190.325 68.9006C190.207 69.1451 190.03 69.3563 189.81 69.515C189.247 69.8736 188.585 70.0451 187.918 70.005C187.224 70.0407 186.532 69.9004 185.907 69.597V68.687C186.226 68.8471 186.561 68.9718 186.907 69.059C187.244 69.1475 187.59 69.1935 187.938 69.196C188.347 69.219 188.756 69.1342 189.122 68.95C189.242 68.88 189.342 68.7815 189.415 68.6634C189.487 68.5453 189.53 68.4111 189.538 68.2727C189.547 68.1343 189.521 67.9959 189.463 67.8699C189.405 67.7438 189.317 67.634 189.207 67.55C188.812 67.2801 188.382 67.0664 187.928 66.915C187.481 66.7634 187.05 66.5663 186.643 66.327C186.412 66.1836 186.217 65.988 186.075 65.756C185.946 65.5233 185.881 65.2601 185.888 64.994C185.881 64.748 185.936 64.5043 186.049 64.2857C186.162 64.067 186.328 63.8806 186.533 63.744C187.06 63.4105 187.678 63.25 188.301 63.285C189.005 63.2863 189.701 63.4309 190.347 63.71L189.998 64.51C189.44 64.2625 188.839 64.1266 188.229 64.11C187.865 64.0874 187.502 64.163 187.177 64.329C187.069 64.3873 186.979 64.4741 186.917 64.5798C186.854 64.6855 186.822 64.8062 186.823 64.929C186.818 65.0872 186.865 65.2427 186.956 65.372C187.072 65.5181 187.219 65.6375 187.385 65.722C187.753 65.9061 188.132 66.0661 188.521 66.201C189.094 66.3704 189.624 66.6587 190.078 67.047C190.212 67.1895 190.316 67.3572 190.385 67.5404C190.454 67.7235 190.485 67.9185 190.478 68.114" fill="black"/>
<path d="M77.454 42.6301L75.133 37.3591L72.788 42.6301H77.454ZM75.122 25.4141L86.731 50.8331H81.198L79.479 47.0511H70.768L69.049 50.8331H63.53L75.122 25.4141Z" fill="black"/>
<path d="M103.489 40.649V25.416H108.631V40.665C108.651 42.0078 108.394 43.3403 107.876 44.5792C107.358 45.8181 106.589 46.9367 105.619 47.865C103.677 49.7681 101.066 50.8341 98.347 50.8341C95.6279 50.8341 93.0171 49.7681 91.075 47.865C90.1051 46.9363 89.337 45.8176 88.8186 44.5788C88.3002 43.34 88.0427 42.0077 88.062 40.665V25.416H93.207V40.649C93.2335 41.9949 93.7868 43.2768 94.7481 44.2192C95.7093 45.1617 97.0018 45.6896 98.348 45.6896C99.6942 45.6896 100.987 45.1617 101.948 44.2192C102.909 43.2768 103.462 41.9949 103.489 40.649Z" fill="black"/>
<path d="M118.398 25.4098L122.74 32.9628L127.098 25.4098H132.956L125.673 38.1098L132.956 50.8368H127.098L122.742 43.2518L118.398 50.8328H112.538L119.798 38.1058L112.54 25.4058H118.398" fill="black"/>
<path d="M142.538 25.4102H137.429V50.8332H142.538V25.4102Z" fill="black"/>
<path d="M152.607 25.4102V45.7532H162.828V50.8332H147.498V25.4102H152.606" fill="black"/>
<path d="M172.492 32.7459C171.075 34.1756 170.281 36.1081 170.285 38.1211C170.289 40.1341 171.089 42.0638 172.512 43.4883C173.934 44.9128 175.862 45.7163 177.875 45.7232C179.888 45.73 181.822 44.9397 183.254 43.5249C183.968 42.8196 184.535 41.9802 184.924 41.0549C185.312 40.1296 185.514 39.1366 185.517 38.1332C185.521 37.1297 185.326 36.1354 184.944 35.2075C184.561 34.2796 184 33.4363 183.291 32.7262C182.582 32.016 181.739 31.453 180.812 31.0695C179.885 30.6859 178.891 30.4894 177.887 30.4913C176.884 30.4931 175.891 30.6932 174.965 31.0801C174.039 31.4671 173.198 32.0331 172.492 32.7459ZM186.86 29.1729C188.044 30.3505 188.984 31.7505 189.625 33.2924C190.266 34.8344 190.596 36.4879 190.596 38.1579C190.596 39.8278 190.266 41.4813 189.625 43.0233C188.984 44.5652 188.044 45.9653 186.86 47.1429C185.084 48.9181 182.821 50.127 180.358 50.6166C177.895 51.1062 175.342 50.8547 173.022 49.8937C170.702 48.9327 168.719 47.3055 167.323 45.2176C165.928 43.1298 165.183 40.6751 165.182 38.1639C165.172 35.648 165.911 33.1859 167.304 31.091C168.697 28.996 170.682 27.3627 173.006 26.3988C175.33 25.435 177.888 25.184 180.355 25.678C182.822 26.172 185.086 27.3885 186.86 29.1729Z" fill="black"/>
<path d="M50.826 50.8328H38.12L50.826 38.1328V50.8328Z" fill="black"/>
<path d="M12.707 24.468L25.407 37.168V26.368L12.707 13.668V24.468Z" fill="#F37021"/>
<path d="M13.669 12.7208L26.375 25.4208L37.152 25.4088L24.452 12.7148H13.665" fill="#F37021"/>
<path d="M0.951996 25.417L13.66 38.125L24.45 38.11L11.757 25.417H0.956996" fill="#F37021"/>
<path d="M-0.00201416 38.1541L12.707 50.8131V39.0711L-0.00201416 26.3691V38.1541Z" fill="#F37021"/>
<path d="M38.12 0H26.354L39.062 12.708L50.826 12.691L38.12 0Z" fill="#F37021"/>
<path d="M25.411 11.7762L38.119 24.4762V13.6902L25.411 0.990234V11.7802" fill="#F37021"/>
<path d="M188.098 26.3172C187.594 26.3168 187.101 26.167 186.682 25.8867C186.263 25.6064 185.937 25.2081 185.744 24.7423C185.552 24.2765 185.502 23.7641 185.6 23.2697C185.699 22.7754 185.942 22.3214 186.298 21.9651C186.655 21.6088 187.109 21.3663 187.603 21.2681C188.098 21.1699 188.61 21.2205 189.076 21.4135C189.542 21.6064 189.94 21.9332 190.22 22.3523C190.5 22.7714 190.649 23.2642 190.649 23.7682C190.648 24.4443 190.379 25.0923 189.901 25.5702C189.422 26.048 188.774 26.3167 188.098 26.3172ZM188.098 21.5382C187.657 21.5382 187.225 21.6691 186.858 21.9143C186.492 22.1595 186.206 22.508 186.037 22.9157C185.868 23.3234 185.824 23.7721 185.91 24.2049C185.996 24.6376 186.209 25.0352 186.521 25.3471C186.833 25.6591 187.231 25.8715 187.663 25.9575C188.096 26.0435 188.545 25.9991 188.952 25.8301C189.36 25.6611 189.708 25.375 189.953 25.008C190.199 24.641 190.329 24.2095 190.329 23.7682C190.328 23.1769 190.093 22.61 189.675 22.1919C189.256 21.7739 188.689 21.5388 188.098 21.5382Z" fill="#010101"/>
<path d="M188.734 25.0432C188.734 24.8374 188.674 24.6362 188.56 24.4646C188.447 24.293 188.285 24.1586 188.096 24.0782L187.779 23.9412V25.0412H187.461V22.6512C187.461 22.6303 187.465 22.6095 187.473 22.5902C187.481 22.5708 187.492 22.5533 187.507 22.5385C187.522 22.5237 187.54 22.512 187.559 22.504C187.578 22.4961 187.599 22.4921 187.62 22.4922H188.336C188.515 22.4933 188.686 22.5611 188.818 22.6821C188.949 22.8032 189.031 22.9689 189.047 23.1469C189.062 23.3249 189.011 23.5023 188.903 23.6446C188.795 23.7868 188.638 23.8837 188.462 23.9162C188.644 24.0417 188.793 24.2097 188.896 24.4057C188.999 24.6017 189.053 24.8198 189.053 25.0412L188.734 25.0432ZM187.778 23.6092H188.335C188.441 23.6092 188.543 23.567 188.618 23.492C188.693 23.417 188.735 23.3153 188.735 23.2092C188.735 23.1031 188.693 23.0014 188.618 22.9263C188.543 22.8513 188.441 22.8092 188.335 22.8092H187.778V23.6092Z" fill="#010101"/>
</g>
<defs>
<clipPath id="clip0_3_180">
<rect width="190.647" height="70.001" fill="white"/>
</clipPath>
</defs>
</svg>
