<svg width="180" height="59" fill="none" xmlns="http://www.w3.org/2000/svg"><path fill-rule="evenodd" clip-rule="evenodd" d="m28.909 44.1-21.14.018.154-.747 15.402-.445c2.955-.11 5.82-.273 8.593-1.22 5.693-1.911 10.226-5.797 11.559-10.611 1.432-5.16-1.859-10.183-8.06-10.62 5.25-1.547 9.728-4.887 10.915-9.183 1.55-5.587-1.25-8.408-5.983-9.437 7.869-.127 14.015 2.53 11.921 10.084-1.188 4.304-5.775 7.571-10.996 9 6.128.455 9.482 6.316 7.86 11.421-1.696 5.315-5.966 8.618-11.65 10.52-2.773.947-5.647 1.11-8.593 1.22h.018Z" fill="#fff"/><path fill-rule="evenodd" clip-rule="evenodd" d="m17.813 41.433-9.917.492c0-.255.009-.2-.018-.446l25.129-7.463.081-.91-25.664 6.662c-.081-.246-.09-.173-.19-.41l26.86-14.934-.272-.746L6.372 37.92c-.162-.236-.09-.136-.29-.346L38.02 7.634l-.39-.81L4.913 36.51c-.154-.11-.253-.191-.417-.291L27.912 2.392h-.988L2.964 35.518a7.283 7.283 0 0 0-.417-.128L16.462 2.338h-.888L.607 35.136H0L9.69.008l18.095.055c8.558-.492 15.32 1.829 13.1 9.855-1.188 4.305-5.666 7.645-10.888 9.073l-.027.119c6.2.437 9.69 5.442 8.258 10.602-1.332 4.814-6.1 8.581-11.794 10.483-2.774.947-5.647 1.11-8.594 1.22l-.027.018ZM66.62 44.045c1.342 0 4.724-.173 5.54-4.032.444-2.093.163-3.549-2.022-3.858v-.046c1.804-.337 2.937-1.602 3.309-3.358.689-3.249-1.16-3.95-3.581-3.95h-5.63L61.01 44.037h5.612v.009Zm.29-12.896h1.959c1.07 0 1.659.82 1.414 1.939-.308 1.474-1.378 1.938-2.076 1.938h-2.121l.825-3.886v.01Zm-1.314 6.225h1.85c1.595 0 1.93.82 1.64 2.175-.453 2.13-1.967 2.148-2.638 2.148h-1.767l.915-4.323ZM82.366 36.737c.408-1.938.272-3.567-3.49-3.567-1.133 0-2.14.191-2.919.7-.797.483-1.369 1.311-1.64 2.594h2.9c.182-.846.426-1.629 1.46-1.629 1.033 0 1.06.655.87 1.566l-.172.819c-2.747-.046-5.485.109-6.237 3.63-.39 1.857.036 3.395 2.094 3.395 1.278 0 2.257-.528 3.118-1.629h.046l-.172 1.41h2.755c.073-.655.136-1.328.272-1.983l1.124-5.315-.009.01Zm-3.354 2.157c-.245 1.165-.471 3.522-2.22 3.522-.97 0-.898-.928-.735-1.684.399-1.902 1.469-1.774 2.955-1.838ZM87.616 33.388H84.65l-2.257 10.657h2.964l1.55-7.344c.2-.947.526-1.684 1.47-1.684.942 0 .96.737.751 1.684l-1.55 7.344h2.965l1.813-8.545c.317-1.475-.753-2.321-2.158-2.321-1.115 0-1.985.337-2.774 1.283h-.045l.227-1.074h.009ZM94.922 44.045l1.224-5.806h.046l1.523 5.806h3.345l-2.094-5.915 4.015-4.742h-3.09l-3.627 4.496h-.036l1.922-9.073h-2.965l-3.227 15.234h2.964ZM108.538 44.254c3.826 0 4.823-2.339 5.53-5.678.616-2.913.725-5.406-3.182-5.406s-4.859 2.493-5.475 5.406c-.708 3.33-.698 5.678 3.127 5.678Zm.399-1.902c-1.097 0-1.215-.691-.535-3.95.472-2.21.816-3.33 2.076-3.33 1.26 0 1.133 1.12.662 3.33-.689 3.25-1.106 3.95-2.203 3.95ZM121.927 28.747c-.353-.018-.688-.045-1.042-.045-3.617 0-3.708 1.629-4.333 4.686h-1.342l-.39 1.839h1.324l-1.868 8.818h2.965l1.867-8.818h1.387l.39-1.839h-1.387l.272-1.283c.227-1.074.58-1.538 1.759-1.456l.398-1.902ZM128.654 44.045c1.342 0 4.723-.173 5.539-4.032.444-2.093.163-3.549-2.021-3.858v-.046c1.804-.337 2.937-1.602 3.309-3.358.688-3.249-1.161-3.95-3.581-3.95h-5.63l-3.227 15.235h5.611v.009Zm.29-12.896h1.959c1.069 0 1.649.82 1.414 1.939-.318 1.474-1.378 1.938-2.076 1.938h-2.121l.824-3.886v.01Zm-1.314 6.225h1.849c1.596 0 1.931.82 1.641 2.175-.453 2.13-1.967 2.148-2.638 2.148h-1.768l.916-4.323ZM144.401 36.737c.408-1.938.272-3.567-3.491-3.567-1.133 0-2.139.191-2.919.7-.797.483-1.368 1.311-1.64 2.594h2.901c.181-.846.426-1.629 1.459-1.629 1.033 0 1.061.655.87 1.566l-.172.819c-2.747-.046-5.484.109-6.237 3.63-.39 1.857.036 3.395 2.094 3.395 1.278 0 2.257-.528 3.119-1.629h.045l-.172 1.41h2.756c.072-.655.136-1.328.272-1.983l1.124-5.315-.009.01Zm-3.355 2.157c-.244 1.165-.471 3.522-2.221 3.522-.97 0-.897-.928-.734-1.684.399-1.902 1.469-1.774 2.955-1.838ZM146.685 33.388l-2.257 10.657h2.964l1.233-5.806c.227-1.056.589-2.576 3.155-2.403l.562-2.657c-1.197 0-2.285.355-3.092 1.583h-.045l.29-1.374h-2.819.009ZM154.572 44.254c3.825 0 4.823-2.339 5.53-5.678.616-2.913.725-5.406-3.182-5.406s-4.859 2.493-5.476 5.406c-.707 3.33-.698 5.678 3.128 5.678Zm.399-1.902c-1.097 0-1.215-.691-.535-3.95.471-2.21.807-3.33 2.076-3.33 1.269 0 1.133 1.12.662 3.33-.689 3.25-1.106 3.95-2.203 3.95ZM168.269 44.045l3.228-15.234h-2.965l-1.187 5.587h-.046c-.417-.91-1.087-1.219-2.157-1.219-2.983 0-3.599 3.313-4.061 5.47-.463 2.193-1.297 5.614 1.776 5.614 1.134 0 2.031-.355 2.792-1.392h.046l-.254 1.183h2.819l.009-.01Zm-3.816-1.63c-1.07 0-1.025-1.118-.453-3.794.453-2.13.743-3.604 2.021-3.604s.889 1.474.435 3.604c-.571 2.685-.997 3.795-2.003 3.795ZM179.383 36.737c.408-1.938.272-3.567-3.49-3.567-1.133 0-2.139.191-2.919.7-.798.483-1.369 1.311-1.641 2.594h2.901c.181-.846.426-1.629 1.459-1.629 1.034 0 1.061.655.871 1.566l-.173.819c-2.746-.046-5.484.109-6.236 3.63-.39 1.857.036 3.395 2.094 3.395 1.278 0 2.257-.528 3.118-1.629h.045l-.172 1.41h2.756c.073-.655.136-1.328.272-1.983l1.124-5.315-.009.01Zm-3.363 2.157c-.245 1.165-.472 3.522-2.221 3.522-.97 0-.898-.928-.734-1.684.398-1.902 1.468-1.774 2.955-1.838ZM148.888 20.93h2.566l-.58 2.139h-2.566l.58-2.14Zm-35.119-2.111h2.566l-.58 2.138h-2.566l.58-2.138ZM72.74 3.42h2.566l-.58 2.138H72.16l.58-2.138Zm32.182 3.203-.399 1.292h1.677l-1.097 4.277h-2.158l-.362 1.32h2.185l-1.587 6.188h2.693l3.018-11.776h2.131l-3.019 11.776h2.692l3.019-11.776h2.248l-1.894 7.344c-.3 1.165.716 1.839 2.066 1.839 1.07 0 1.895-.264 2.693-1.02l-.898 3.604h2.938c.081-.555.861-3.877 1.006-4.423l.707-2.72c.272-.592.725-1.138 1.378-1.138.906 0 .915.582.725 1.338l-1.487 5.806h2.838l1.731-6.762c.299-1.165-.716-1.838-2.067-1.838-1.06 0-1.967.336-2.719 1.074l.807-3.104h4.886l.399-1.292h-24.123l-.027-.009Zm15.991 1.292-1.623 6.116c-.19.755-.535 1.61-1.441 1.61-.907 0-.925-.545-.734-1.3l1.668-6.426h2.13ZM96.645 19.683H92.62l.336-1.338h3.508c.888 0 2.194-.5 2.647-2.266.29-1.119-.19-2.411-1.795-2.411h-2.629l.354-1.456h3.055c1.078 0 1.912-.929 2.221-2.148.235-.928.181-2.166-1.424-2.166h-3.272l.335-1.338H99.9c1.994 0 4.161.865 3.589 3.267-.435 1.793-1.35 2.694-3.453 3.03 2.175.301 2.61 1.748 2.166 3.486-.816 3.204-4.206 3.34-5.557 3.34ZM67.03 6.624h-4.524l-.399 1.292h6.573l-.635 2.512c-.399-.719-1.532-.992-2.556-.992-2.856 0-3.654 2.32-4.089 4.022-.444 1.739-1.033 4.742 1.904 4.742 1.088 0 2.439-.255 3.21-1.074l-.708 2.566h2.692l3.01-11.767h7.27l-.634 2.512c-.399-.719-1.043-.965-2.067-.965-2.855 0-3.572 2.385-4.007 4.087-.444 1.738-1.115 4.677 1.822 4.677 1.088 0 1.94-.282 2.71-1.101l-.697 2.566h2.674l1.596-6.452c.48-1.629.988-2.266 1.84-2.266 1.024 0 .979.883.435 3.003-.435 1.684-.762 3.158-1.994 3.158-.091 0-.19-.054-.263-.073l-.2.765c.29.264.798.373 1.36.373 2.856 0 3.59-2.457 4.025-4.159.444-1.738 1.088-4.523-1.85-4.523-1.087 0-1.985.319-2.719 1.138l.67-2.73h5.458l.4-1.293H71.633L70.247.272l-2.375 1.056 2.013 5.314h-.762l-2.511-4.368-1.967 1.447 2.357 2.921.027-.018Zm-2.067 5.023c.326-.482.78-.755 1.505-.755 1.532.018 1.197 1.192.761 2.876l-.163.619-2.103-2.74Zm1.605 4.068c-.372.72-.843 1.029-1.605 1.029-1.296 0-1.315-.874-.78-2.985.073-.3.145-.583.227-.838l2.148 2.794h.01Zm9.346 3.968.698-2.566s.018 0-.698 2.566Zm-.499-2.912c-1.024 0-.979-.883-.435-3.003.435-1.684.707-2.858 1.94-2.858s.843 1.165.417 2.858c-.544 2.12-.952 3.003-1.913 3.003h-.009Zm79.077-6.416c-.236-.637-.988-.819-2.675-.819-2.755 0-3.218.31-3.871 2.712-.335 1.301-.625 2.867 1.215 2.867.707 0 2.176.027 2.176.027 1.659 0 1.577.573 1.233 1.665-.417 1.53-.78 1.784-1.877 1.784-1.804 0-1.187-1.047-.897-2.102h-3.11c-.625 2.002-.516 3.24 2.23 3.24h3.146c1.614 0 2.91-.155 3.599-2.812.562-2.357.272-2.958-1.305-2.958h-2.149c-1.26.027-1.623-.237-1.314-1.51.426-1.493.734-1.639 1.776-1.639 1.152 0 1.569.337 1.342 1.247h2.702l1.078-4.15h2.158l-3.019 11.776h2.693l3.018-11.776h7.588l-.517 1.811s-1.151-.064-2.175-.064c-2.856 0-3.889 2.084-4.488 4.46-.589 2.311-1.169 5.724 2.312 5.724.598 0 1.387-.055 2.094-.246.118.81.517 1.502 1.178 2.293l2.901-1.592s-1.45-.091-2.048-1.229c1.169-.327 1.767-.964 2.103-2.147.235-.838.235-1.793-1.496-1.793-1.895 0-2.819 1.874-2.638 3.485-.236.082-.426.128-.535.128-1.695 0-1.224-1.575-.625-4.186.498-2.175.843-3.65 2.066-3.65h3.763l.933-2.994h2.339l-3.019 11.776h2.693l3.019-11.776h1.513L180 6.615h-18.085l-1.387-6.37-2.375 1.055 2.012 5.315h-.761l-2.511-4.368-1.967 1.447 2.357 2.92h-19.164l-.399 1.293h6.527l-.635 2.512c-.399-.719-1.532-.992-2.556-.992-2.856 0-3.753 2.494-4.188 4.195-.444 1.738-.925 4.569 2.003 4.569 1.088 0 2.439-.255 3.209-1.074l-.707 2.566h2.693l3.009-11.767h7.969l-.572 2.44h.019Zm-14.015 1.393c.326-.546.797-.865 1.577-.856 1.532.018 1.197 1.192.762 2.876l-.209.755-2.13-2.775Zm1.378 4.077c-.363.637-.825.919-1.541.919-1.297 0-1.324-.874-.78-2.985l.19-.701 2.131 2.767ZM115.093 2.529c-.662 2.548-1.831 2.694-3.282 2.694h-2.837c-2.375 0-2.566-1.02-2.085-2.694h2.81c-.263.864-.616 1.665.879 1.665.979 0 1.315-.236 1.687-1.61l2.837-.046-.009-.01ZM163.295 58.334l1.316-6.275h1.226l-.685 3.264 1.596-1.533h1.595l-1.821 1.64.974 2.904h-1.226l-.631-2.11-.83.74-.288 1.37h-1.226Zm-4.372-4.544h1.172l-.118.595c.289-.261.568-.442.821-.55.252-.108.523-.162.802-.162.379 0 .676.108.893.325.216.216.324.504.324.865 0 .162-.054.46-.162.901l-.55 2.57h-1.226l.559-2.579c.081-.387.126-.613.126-.694 0-.162-.045-.288-.144-.378a.55.55 0 0 0-.388-.136c-.18 0-.387.073-.604.226a1.557 1.557 0 0 0-.523.604c-.099.18-.198.54-.324 1.09l-.388 1.867h-1.226l.956-4.544Zm-2.939 2.416a3.09 3.09 0 0 1-.298.054c-.613.072-1.018.18-1.208.325a.506.506 0 0 0-.198.423c0 .145.054.271.153.37.099.1.235.153.406.153.189 0 .361-.045.523-.135a.929.929 0 0 0 .369-.351c.082-.145.154-.37.217-.668l.036-.162v-.009Zm-1.163-1.154-1.199-.099c.135-.406.379-.721.721-.947.343-.225.793-.342 1.352-.342s1.019.117 1.299.352c.279.234.423.522.423.865 0 .135-.009.28-.036.433-.027.153-.108.559-.252 1.217-.117.54-.181.928-.181 1.145 0 .198.037.405.109.649h-1.199a3.06 3.06 0 0 1-.09-.514 1.93 1.93 0 0 1-.623.46 1.661 1.661 0 0 1-.703.162c-.378 0-.685-.126-.937-.37a1.318 1.318 0 0 1-.37-.955c0-.433.135-.785.406-1.046.27-.261.748-.415 1.442-.469.586-.045.974-.108 1.172-.18.054-.171.081-.307.081-.415a.414.414 0 0 0-.162-.333c-.108-.09-.261-.136-.469-.136-.216 0-.396.045-.523.136a.675.675 0 0 0-.261.378v.01Zm-6.563 2.272h1.244c.523 0 .875-.036 1.055-.1a.89.89 0 0 0 .433-.333.83.83 0 0 0 .162-.486.66.66 0 0 0-.234-.514c-.154-.136-.415-.199-.776-.199h-1.541l-.343 1.641v-.009Zm.568-2.731h.992c.441 0 .766-.028.955-.09a.801.801 0 0 0 .442-.307.793.793 0 0 0 .144-.46.589.589 0 0 0-.135-.397.731.731 0 0 0-.388-.207c-.099-.018-.324-.027-.685-.027h-1.009l-.307 1.479-.009.008Zm-2.073 3.74 1.316-6.274h2.145c.469 0 .794.018.983.045.306.046.568.127.784.262.217.126.379.297.487.514.108.216.162.45.162.712 0 .351-.099.649-.288.901-.198.253-.496.451-.902.577.316.09.568.244.749.47.18.224.27.486.27.765 0 .379-.108.73-.324 1.073a1.846 1.846 0 0 1-.884.73c-.379.145-.892.226-1.551.226h-2.956.009Zm-4.877 0 1.316-6.274h1.226l-1.316 6.275h-1.226Zm-1.957-2.127a3.118 3.118 0 0 1-.297.054c-.613.072-1.019.18-1.208.325a.506.506 0 0 0-.199.423c0 .145.055.271.154.37a.55.55 0 0 0 .405.153c.19 0 .361-.045.523-.135a.925.925 0 0 0 .37-.351c.081-.145.153-.37.216-.668l.036-.162v-.009Zm-1.172-1.154-1.199-.099c.136-.406.379-.721.722-.947.342-.225.793-.342 1.352-.342s1.019.117 1.298.352c.279.234.424.522.424.865 0 .135-.009.28-.036.433-.027.153-.109.559-.253 1.217-.117.54-.18.928-.18 1.145 0 .198.036.405.108.649h-1.199a3.06 3.06 0 0 1-.09-.514c-.18.198-.388.351-.622.46a1.665 1.665 0 0 1-.703.162c-.379 0-.685-.126-.938-.37a1.321 1.321 0 0 1-.369-.955c0-.433.135-.785.405-1.046.271-.261.748-.415 1.443-.469.586-.045.973-.108 1.172-.18.054-.171.081-.307.081-.415a.412.412 0 0 0-.163-.333c-.108-.09-.261-.136-.468-.136-.217 0-.397.045-.523.136a.677.677 0 0 0-.262.378v.01Zm-6.112-1.262h1.172l-.117.595c.288-.261.568-.442.82-.55.253-.108.523-.162.803-.162.378 0 .676.108.892.325.217.216.325.504.325.865 0 .162-.054.46-.154.901l-.549 2.57h-1.226l.558-2.579c.082-.387.127-.613.127-.694 0-.162-.045-.288-.145-.378a.547.547 0 0 0-.387-.136c-.181 0-.388.073-.604.226a1.541 1.541 0 0 0-.523.604c-.099.18-.198.54-.325 1.09l-.387 1.867h-1.226l.955-4.544h-.009Zm-2.65 1.776c0-.297-.081-.532-.253-.703-.171-.18-.387-.261-.658-.261-.27 0-.495.08-.703.252-.207.162-.36.406-.478.721a2.505 2.505 0 0 0-.171.875c0 .324.09.586.262.784.18.19.396.288.667.288.333 0 .613-.144.847-.432.325-.415.487-.91.487-1.506v-.018Zm-3.489.884c0-.848.235-1.515.712-2.02.478-.505 1.1-.757 1.866-.757.667 0 1.19.19 1.569.559.379.37.568.865.568 1.496 0 .74-.234 1.38-.703 1.912-.469.54-1.1.81-1.893.81-.424 0-.812-.09-1.136-.26a1.652 1.652 0 0 1-.739-.73 2.16 2.16 0 0 1-.244-1.01Zm-1.668-2.66h1.226l-.955 4.544h-1.226l.955-4.544Zm.361-1.73h1.226l-.234 1.108h-1.226l.234-1.109Zm-3.913 2.64.181-.91h.604l.144-.712 1.388-.847-.315 1.56h.739l-.18.91h-.749l-.396 1.92c-.072.342-.108.54-.108.586 0 .099.027.171.09.216.063.054.162.081.324.081.054 0 .19-.009.406-.027l-.189.91a3.054 3.054 0 0 1-.649.064c-.433 0-.749-.081-.938-.252-.198-.172-.297-.406-.297-.704 0-.144.054-.46.162-.964l.387-1.83h-.604Zm-2.289 1.506a3.15 3.15 0 0 1-.298.054c-.613.072-1.018.18-1.208.325a.506.506 0 0 0-.198.423c0 .145.054.271.153.37.099.1.235.153.406.153.189 0 .36-.045.523-.135a.929.929 0 0 0 .369-.351c.081-.145.154-.37.217-.668l.036-.162v-.009Zm-1.172-1.154-1.199-.099a1.77 1.77 0 0 1 .721-.947c.343-.225.793-.342 1.352-.342s1.019.117 1.298.352c.28.234.424.522.424.865 0 .135-.009.28-.036.433-.027.153-.108.559-.252 1.217-.118.54-.181.928-.181 1.145 0 .198.036.405.099.649h-1.199a3.06 3.06 0 0 1-.09-.514c-.18.198-.387.351-.622.46a1.661 1.661 0 0 1-.703.162c-.378 0-.685-.126-.937-.37a1.318 1.318 0 0 1-.37-.955c0-.433.135-.785.406-1.046.27-.261.748-.415 1.442-.469.586-.045.974-.108 1.172-.18.054-.171.081-.307.081-.415a.414.414 0 0 0-.162-.333c-.108-.09-.262-.136-.469-.136-.216 0-.397.045-.523.136a.675.675 0 0 0-.261.378l.009.01Zm-6.112-1.262h1.172l-.118.595c.289-.261.568-.442.821-.55.252-.108.523-.162.802-.162.379 0 .676.108.893.325.216.216.324.504.324.865 0 .162-.054.46-.153.901l-.55 2.57h-1.226l.559-2.579c.081-.387.126-.613.126-.694 0-.162-.045-.288-.144-.378a.55.55 0 0 0-.388-.136c-.18 0-.387.073-.604.226a1.557 1.557 0 0 0-.523.604c-.099.18-.198.54-.324 1.09l-.388 1.867h-1.226l.956-4.544h-.009Zm-3.498 0h1.154l-.171.857c.423-.65.883-.974 1.379-.974.171 0 .36.045.568.135l-.478 1a1.16 1.16 0 0 0-.361-.062c-.207 0-.423.08-.649.243-.216.162-.387.37-.514.64-.126.27-.243.694-.36 1.271l-.298 1.425h-1.226l.956-4.544v.01Zm-2.362 1.902v-.126c0-.342-.072-.595-.225-.766-.154-.171-.352-.253-.613-.253-.262 0-.478.1-.686.289-.198.19-.333.478-.405.856H105.843Zm1.028.749h-3.083v.108c0 .306.09.55.261.739.171.19.388.28.64.28.415 0 .73-.208.965-.632l1.099.18c-.216.442-.504.776-.856.992a2.294 2.294 0 0 1-1.208.334c-.613 0-1.109-.198-1.496-.577-.388-.388-.577-.902-.577-1.542s.171-1.18.522-1.667c.469-.658 1.145-.983 2.02-.983.559 0 1 .171 1.325.514.325.342.496.83.496 1.451 0 .298-.027.568-.09.803h-.018Zm-7.023-1.74.18-.91h.604l.145-.713 1.388-.847-.316 1.56h.74l-.181.91h-.748l-.397 1.92c-.072.342-.108.54-.108.586 0 .099.027.171.09.216.063.054.163.081.325.081.054 0 .189-.009.406-.027l-.19.91a3.041 3.041 0 0 1-.649.064c-.433 0-.748-.081-.937-.252-.199-.172-.298-.406-.298-.704 0-.144.054-.46.162-.964l.388-1.83h-.604Zm-4.697-.91h1.172l-.117.594c.288-.261.568-.442.82-.55.253-.108.523-.162.803-.162.378 0 .676.108.892.325.217.216.325.504.325.865 0 .162-.054.46-.154.901l-.55 2.57h-1.225l.558-2.579c.082-.387.127-.613.127-.694 0-.162-.045-.288-.145-.378a.548.548 0 0 0-.387-.136c-.18 0-.388.073-.604.226a1.547 1.547 0 0 0-.523.604c-.1.18-.198.54-.325 1.09l-.387 1.867h-1.226l.955-4.544h-.009ZM91.7 58.333l1.316-6.275h1.289l-1.316 6.275h-1.29Zm-7.42-1.262 1.19-.19c.108.253.235.433.397.532.153.108.37.153.64.153s.505-.063.667-.189c.117-.09.171-.19.171-.315a.313.313 0 0 0-.09-.226c-.063-.063-.234-.144-.505-.234-.739-.244-1.199-.442-1.37-.586a1.064 1.064 0 0 1-.415-.875c0-.36.136-.667.406-.928.37-.36.929-.541 1.659-.541.586 0 1.028.108 1.325.325.297.216.487.504.568.874l-1.127.198a.765.765 0 0 0-.288-.378 1.25 1.25 0 0 0-.658-.172c-.262 0-.442.045-.55.127-.118.09-.172.189-.172.297 0 .108.055.207.172.28.072.045.297.126.685.243.595.171.991.343 1.199.514.288.234.423.523.423.856 0 .433-.18.812-.54 1.127-.361.316-.875.478-1.533.478-.658 0-1.163-.117-1.514-.36a1.768 1.768 0 0 1-.73-1.02l-.01.01Zm-.838-5.013h1.235l-.198.974c-.118.568-.307.965-.568 1.199-.262.234-.595.36-1.001.36l.126-.567a.897.897 0 0 0 .469-.244c.108-.117.19-.297.252-.54h-.558l.252-1.182h-.01Zm-3.255 4.147a3.124 3.124 0 0 1-.297.054c-.613.072-1.019.18-1.208.325a.505.505 0 0 0-.198.423c0 .145.054.271.153.37.1.1.234.153.406.153.189 0 .36-.045.522-.135a.93.93 0 0 0 .37-.351c.081-.145.153-.37.216-.668l.036-.162v-.009Zm-1.162-1.154-1.2-.099c.136-.406.38-.721.722-.947.342-.225.793-.342 1.352-.342s1.019.117 1.298.352c.28.234.424.522.424.865 0 .135-.01.28-.036.433a37.64 37.64 0 0 1-.253 1.217c-.117.54-.18.928-.18 1.145 0 .198.036.405.108.649H80.06a3.06 3.06 0 0 1-.09-.514c-.18.198-.388.351-.622.46a1.665 1.665 0 0 1-.703.162c-.379 0-.685-.126-.928-.37a1.32 1.32 0 0 1-.37-.955c0-.433.135-.785.406-1.046.27-.261.748-.415 1.442-.469.586-.045.974-.108 1.172-.18.054-.171.081-.307.081-.415a.414.414 0 0 0-.162-.333c-.109-.09-.262-.136-.47-.136-.206 0-.396.045-.522.136a.675.675 0 0 0-.261.378l-.01.01Zm-3.219-1.262h1.226l-.955 4.544H74.85l.955-4.544Zm.36-1.73h1.227l-.234 1.108H75.93l.235-1.109Zm-5.309 4.426c0 .324.081.577.253.766.162.18.37.27.613.27.225 0 .432-.072.63-.225.199-.153.352-.388.47-.703.117-.316.17-.613.17-.91 0-.325-.09-.596-.27-.803-.18-.207-.387-.306-.622-.306-.36 0-.667.198-.892.603a2.562 2.562 0 0 0-.352 1.308Zm2.84 1.848h-1.163l.1-.487c-.226.216-.443.37-.659.46-.216.09-.46.135-.73.135-.469 0-.848-.162-1.145-.487-.289-.325-.442-.793-.442-1.424 0-.73.208-1.389.622-1.974.415-.587.965-.884 1.65-.884.622 0 1.082.243 1.397.73l.514-2.344h1.226l-1.38 6.275h.01Zm-8.582-4.544h1.172l-.118.595c.289-.261.568-.442.82-.55.253-.108.524-.162.803-.162.379 0 .676.108.892.325.217.216.325.504.325.865 0 .162-.054.46-.162.901l-.55 2.57H67.07l.559-2.579c.08-.387.126-.613.126-.694 0-.162-.045-.288-.144-.378a.548.548 0 0 0-.388-.136c-.18 0-.388.073-.604.226a1.548 1.548 0 0 0-.523.604c-.099.18-.198.54-.324 1.09l-.388 1.867h-1.226l.956-4.544Zm-3.444 4.544 1.316-6.275h1.29l-1.317 6.275h-1.29Z" fill="#fff"/></svg>
